<?xml version="1.0" encoding="utf-8"?>
<!-- Generator: Adobe Illustrator 17.1.0, SVG Export Plug-In . SVG Version: 6.00 Build 0)  -->
<!DOCTYPE svg PUBLIC "-//W3C//DTD SVG 1.1//EN" "http://www.w3.org/Graphics/SVG/1.1/DTD/svg11.dtd">
<svg version="1.1" id="Layer_1" xmlns="http://www.w3.org/2000/svg" xmlns:xlink="http://www.w3.org/1999/xlink" x="0px" y="0px"
	 viewBox="-8 813.6 975.7 572.4" enable-background="new -8 813.6 975.7 572.4" xml:space="preserve">
<g>
	<path fill="#005596" stroke="#F4E9D8" stroke-width="16" stroke-miterlimit="10" d="M959.6,1160.9l-21.9-128.1
		c-8-25.2-27-25.5-27-25.5L835.9,988l-49.6-125.2c-16.1-30.3-29.9-44.9-56.6-40.5L40.9,939.8C14.2,944.2-4,969.7,0.7,996.4
		l53.6,311.2c4.4,26.6,29.9,44.9,56.6,40.1l93.8-16.1c13.5,31.7,47.4,51.1,82.8,45.2c35.4-6.2,60.9-35.8,63.1-70.1l15.7-2.6
		l394.8-67.5c13.5,31.7,47.4,51.1,82.8,45.2c35.8-6.2,61.3-36.1,63.1-70.8l15.3-2.9C962.9,1201.8,959.6,1160.9,959.6,1160.9z"/>
</g>
</svg>
