<svg version="1.1" id="Layer_1" xmlns="http://www.w3.org/2000/svg" xmlns:xlink="http://www.w3.org/1999/xlink" x="0px" y="0px"
	 viewBox="0 0 263.1 152.6" enable-background="new 0 0 263.1 152.6" xml:space="preserve">
<g>
	<path fill="#005596" d="M263,93l-6-35.1c-2.2-6.9-7.4-7-7.4-7l-20.5-5.3l-13.6-34.3C211.1,3,207.3-1,200,0.2L11.2,32.4
		c-7.3,1.2-12.3,8.2-11,15.5l14.7,85.3c1.2,7.3,8.2,12.3,15.5,11l25.7-4.4c3.7,8.7,13,14,22.7,12.4c9.7-1.7,16.7-9.8,17.3-19.2
		l4.3-0.7l108.2-18.5c3.7,8.7,13,14,22.7,12.4c9.8-1.7,16.8-9.9,17.3-19.4l4.2-0.8C263.9,104.2,263,93,263,93z"/>
</g>
</svg>
